<?xml version="1.0" encoding="UTF-8"?>
<svg width="1111px" height="1111px" viewBox="0 0 1111 1111" version="1.1" xmlns="http://www.w3.org/2000/svg" xmlns:xlink="http://www.w3.org/1999/xlink">
    <!-- Generator: Sketch 42 (36781) - http://www.bohemiancoding.com/sketch -->
    <title>plus</title>
    <desc>Created with Sketch.</desc>
    <defs></defs>
    <g id="Page-1" stroke="none" stroke-width="1" fill="none" fill-rule="evenodd">
        <g id="plus" fill-rule="nonzero" fill="#7C8087">
            <path d="M555.16901,0 C406.88701,0 267.42301,57.731 162.48201,162.624 C-54.096992,379.202 -54.190992,731.565 162.38201,948.188 C267.27501,1053.081 406.74101,1110.808 555.07001,1110.808 L555.07001,1110.808 C703.49599,1110.808 843.04999,1053.032 947.94299,948.092 C1164.519,731.61 1164.519,379.249 947.94299,162.624 C843.04999,57.778 703.53999,0 555.16201,0 L555.16901,0 Z M555.16901,94.333 C678.45399,94.333 794.23999,142.295 881.25799,229.312 C1060.999,409.102 1060.999,701.659 881.25799,881.4 C794.09899,968.511 678.31299,1016.479 555.07301,1016.479 C431.92901,1016.479 316.13801,968.56 229.07401,881.496 C49.336008,701.661 49.337008,409.102 229.17401,229.312 C316.23801,142.295 432.02501,94.333 555.16901,94.333 L555.16901,94.333 Z M555.17901,322.532 C529.10001,322.532 508.01801,343.662 508.01801,369.696 L508.01801,508.243 L369.47001,508.243 C343.38901,508.243 322.30601,529.37 322.30601,555.405 C322.30601,581.439 343.38901,602.569 369.47001,602.569 L508.01801,602.569 L508.01801,741.112 C508.01801,767.146 529.10001,788.276 555.17901,788.276 C581.26001,788.276 602.34399,767.146 602.34399,741.112 L602.34399,602.569 L740.88999,602.569 C766.97199,602.569 788.05399,581.439 788.05399,555.405 C788.05399,529.37 766.97199,508.243 740.88999,508.243 L602.34399,508.243 L602.34399,369.696 C602.34399,343.662 581.26001,322.532 555.17901,322.532 L555.17901,322.532 Z" id="Shape"></path>
        </g>
    </g>
</svg>