<?xml version="1.0" encoding="UTF-8"?>
<svg width="1111px" height="1111px" viewBox="0 0 1111 1111" version="1.1" xmlns="http://www.w3.org/2000/svg" xmlns:xlink="http://www.w3.org/1999/xlink">
    <!-- Generator: Sketch 42 (36781) - http://www.bohemiancoding.com/sketch -->
    <title>plus</title>
    <desc>Created with Sketch.</desc>
    <defs></defs>
    <g id="Page-1" stroke="none" stroke-width="1" fill="none" fill-rule="evenodd">
        <g id="plus" fill-rule="nonzero" fill="#7C8087">
            <g id="Page-1">
                <g id="plus">
                    <path d="M555.16901,5.68434189e-14 L555.16201,5.68434189e-14 C703.53999,5.68434189e-14 843.04999,57.778 947.94299,162.624 C1164.519,379.249 1164.519,731.61 947.94299,948.092 C843.04999,1053.032 703.49599,1110.808 555.07001,1110.808 C406.74101,1110.808 267.27501,1053.081 162.38201,948.188 C-54.190992,731.565 -54.096992,379.202 162.48201,162.624 C267.42301,57.731 406.88701,5.68434189e-14 555.16901,5.68434189e-14 Z M555.17901,322.532 C529.10001,322.532 508.01801,343.662 508.01801,369.696 L508.01801,508.243 L369.47001,508.243 C343.38901,508.243 322.30601,529.37 322.30601,555.405 C322.30601,581.439 343.38901,602.569 369.47001,602.569 L508.01801,602.569 L508.01801,741.112 C508.01801,767.146 529.10001,788.276 555.17901,788.276 C581.26001,788.276 602.34399,767.146 602.34399,741.112 L602.34399,602.569 L740.88999,602.569 C766.97199,602.569 788.05399,581.439 788.05399,555.405 C788.05399,529.37 766.97199,508.243 740.88999,508.243 L602.34399,508.243 L602.34399,369.696 C602.34399,343.662 581.26001,322.532 555.17901,322.532 Z" id="Shape"></path>
                </g>
            </g>
        </g>
    </g>
</svg>